<svg xmlns="http://www.w3.org/2000/svg" width="122.663" height="128" viewBox="0 0 47.538 124.724"><path style="color:#fff;font-style:normal;font-variant:normal;font-weight:400;font-stretch:normal;font-size:medium;line-height:normal;font-family:sans-serif;text-indent:0;text-align:start;text-decoration:none;text-decoration-line:none;text-decoration-style:solid;text-decoration-color:#fff;letter-spacing:normal;word-spacing:normal;text-transform:none;direction:ltr;block-progression:tb;writing-mode:lr-tb;baseline-shift:baseline;text-anchor:start;white-space:normal;clip-rule:nonzero;display:inline;overflow:visible;visibility:visible;opacity:1;isolation:auto;mix-blend-mode:normal;color-interpolation:sRGB;color-interpolation-filters:linearRGB;solid-color:#fff;solid-opacity:1;fill:#fff;fill-opacity:1;fill-rule:evenodd;stroke:none;stroke-width:42.69927216;stroke-linecap:round;stroke-linejoin:round;stroke-miterlimit:4;stroke-dasharray:none;stroke-dashoffset:0;stroke-opacity:1;color-rendering:auto;image-rendering:auto;shape-rendering:auto;text-rendering:auto;enable-background:accumulate" d="M-223.198 169.135a9.942 9.942 0 0 0-2.318.424l-53.022 16.17c-4.881 1.492-7.733 6.559-6.478 11.512l6.18 55.663a9.578 9.578 0 0 0 3.562 6.429l39.219 31.195c.17.147.344.288.523.424a9.878 9.878 0 0 0 2.417 1.395l.2.077c.196.077.396.139.598.199.181.052.363.102.548.15l.128.025h.052c.214.053.43.09.648.128l.623.077h.149c.19.013.382.026.573.026.266-.006.532-.026.797-.052.318-.027.634-.066.947-.128.319-.066.635-.134.946-.225a9.557 9.557 0 0 0 2.542-1.145l49.31-27.682a9.576 9.576 0 0 0 4.858-7.75l3.613-59.6a9.586 9.586 0 0 0-2.491-7.026 9.62 9.62 0 0 0-1.196-1.096c-.076-.065-.149-.114-.224-.175l-.15-.102a9.836 9.836 0 0 0-.648-.449 12.508 12.508 0 0 0-.572-.298c-.09-.04-.183-.09-.275-.128a7.704 7.704 0 0 0-.598-.274l-.077-.027c-.131-.039-.265-.089-.398-.127l-46.22-17.043a9.552 9.552 0 0 0-3.762-.573zm-1.934 9.42c4.15-.584 8.224.395 9.094 2.192.869 1.795-1.804 3.726-5.955 4.31-4.15.585-8.2-.397-9.07-2.192-.87-1.797 1.78-3.726 5.93-4.31zm-26.686 7.524c4.395-.66 8.697.458 9.618 2.492.92 2.031-1.91 4.223-6.304 4.884-4.394.66-8.698-.46-9.618-2.492-.92-2.034 1.91-4.223 6.304-4.884zm53.62 1.072c4.639.636 7.599 2.732 6.628 4.684-.972 1.955-5.503 3.027-10.14 2.392-4.64-.636-7.625-2.754-6.654-4.71.971-1.951 5.528-3.001 10.166-2.366zm-29.974.298c5.126-.635 10.138.436 11.212 2.392 1.073 1.953-2.2 4.05-7.325 4.685-5.126.635-10.165-.44-11.237-2.392-1.075-1.955 2.224-4.05 7.35-4.685zm1.844 9.718c3.74.134 6.867 1.181 7.699 2.766 1.106 2.11-2.286 4.371-7.575 5.058-5.288.686-10.48-.456-11.586-2.567-1.108-2.113 2.286-4.396 7.575-5.083a23.86 23.86 0 0 1 3.887-.175zm-44.424 9.105c1.868.115 4.118 2.12 5.706 5.308 2.117 4.25 2.23 9.025.248 10.639-1.978 1.612-5.283-.534-7.4-4.784s-2.227-9.003-.249-10.614a2.383 2.383 0 0 1 1.695-.549zm86.792 4.695c.856-.114 1.693-.039 2.442.324 2.99 1.441 3.564 6.444 1.295 11.163-2.268 4.72-6.527 7.371-9.518 5.93-2.994-1.443-3.59-6.418-1.32-11.138 1.701-3.54 4.532-5.919 7.1-6.279zm-65.887 7.19c2.029.128 4.505 2.244 6.229 5.607 2.298 4.484 2.424 9.485.274 11.187-2.148 1.7-5.774-.548-8.073-5.033-2.298-4.484-2.422-9.512-.274-11.212.537-.427 1.167-.59 1.844-.549zm38.828 4.097c.856-.114 1.693-.039 2.441.324 2.99 1.442 3.565 6.444 1.296 11.163-2.269 4.72-6.527 7.371-9.518 5.93-2.994-1.443-3.564-6.418-1.296-11.137 1.702-3.54 4.507-5.92 7.077-6.28zm-57.242 2.108c1.708.127 3.782 2.16 5.233 5.407 1.935 4.328 2.034 9.17.224 10.813-1.807 1.642-4.842-.53-6.777-4.858-1.935-4.329-2.032-9.173-.224-10.814.453-.411.976-.59 1.544-.549zm19.684 13.38c2.03.127 4.48 2.243 6.205 5.606 2.298 4.484 2.424 9.485.274 11.188-2.148 1.7-5.75-.549-8.048-5.034-2.298-4.484-2.422-9.512-.274-11.212.536-.426 1.167-.59 1.843-.549zm64.019 4.221c.856-.114 1.693-.013 2.442.35 2.99 1.44 3.564 6.418 1.295 11.138-2.269 4.719-6.527 7.396-9.518 5.954-2.994-1.443-3.59-6.443-1.32-11.162 1.701-3.54 4.532-5.919 7.1-6.279zm-81.485.762c1.6.102 3.549 1.854 4.908 4.634 1.814 3.707 1.896 7.862.2 9.27-1.695 1.405-4.541-.455-6.354-4.162-1.813-3.707-1.894-7.863-.2-9.269.426-.352.912-.508 1.446-.473zm55.323 11.572c.856-.115 1.693-.013 2.442.35 2.99 1.44 3.589 6.443 1.32 11.162-2.269 4.72-6.552 7.371-9.543 5.93-2.994-1.443-3.564-6.443-1.296-11.162 1.702-3.54 4.507-5.92 7.077-6.28zm-36.66 2.107c2.028.128 4.504 2.243 6.228 5.606 2.299 4.484 2.4 9.485.25 11.188-2.149 1.7-5.75-.549-8.049-5.033-2.298-4.484-2.422-9.488-.274-11.188a2.637 2.637 0 0 1 1.844-.573z" transform="translate(249.708 -168.71)"/></svg>